HIERARCHY
ROOT Hips
{
	OFFSET 0.000000 0.000000 0.000000 
	CHANNELS 6 Xposition Yposition Zposition Zrotation Yrotation Xrotation
	JOINT LeftUpLeg
	{
		OFFSET 1.363060 -1.794630 0.839290 
		CHANNELS 3 Zrotation Yrotation Xrotation
		JOINT LeftLeg
		{
			OFFSET 2.448110 -6.726130 0.000000 
			CHANNELS 3 Zrotation Yrotation Xrotation
			JOINT LeftFoot
			{
				OFFSET 2.562200 -7.039590 0.000000 
				CHANNELS 3 Zrotation Yrotation Xrotation
				JOINT LeftToeBase
				{
					OFFSET 0.157640 -0.433110 2.322550 
					CHANNELS 3 Zrotation Yrotation Xrotation
					End Site
					{
						OFFSET 0.000000 0.000000 0.000000 
					}
				}
			}
		}
	}
	JOINT RightUpLeg
	{
		OFFSET -1.305520 -1.794630 0.839290 
		CHANNELS 3 Zrotation Yrotation Xrotation
		JOINT RightLeg
		{
			OFFSET -2.542530 -6.985550 0.000000 
			CHANNELS 3 Zrotation Yrotation Xrotation
			JOINT RightFoot
			{
				OFFSET -2.568260 -7.056230 0.000000 
				CHANNELS 3 Zrotation Yrotation Xrotation
				JOINT RightToeBase
				{
					OFFSET -0.164730 -0.452590 2.363150 
					CHANNELS 3 Zrotation Yrotation Xrotation
					End Site
					{
						OFFSET 0.000000 0.000000 0.000000 
					}
				}
			}
		}
	}
	JOINT Spine
	{
		OFFSET 0.028270 2.035590 -0.193380 
		CHANNELS 3 Zrotation Yrotation Xrotation
		JOINT Spine1
		{
			OFFSET 0.056720 2.048850 -0.042750 
			CHANNELS 3 Zrotation Yrotation Xrotation
			JOINT Neck1
			{
				OFFSET -0.054170 1.746240 0.172020 
				CHANNELS 3 Zrotation Yrotation Xrotation
				JOINT Head
				{
					OFFSET 0.104070 1.761360 -0.123970 
					CHANNELS 3 Zrotation Yrotation Xrotation
					End Site
					{
						OFFSET 0.000000 0.000000 0.000000 
					}
				}
			}
			JOINT LeftArm
			{
				OFFSET 3.362410 1.200890 -0.311210 
				CHANNELS 3 Zrotation Yrotation Xrotation
				JOINT LeftForeArm
				{
					OFFSET 4.983000 -0.000000 -0.000000 
					CHANNELS 3 Zrotation Yrotation Xrotation
					JOINT LeftHand
					{
						OFFSET 3.483560 -0.000000 -0.000000 
						CHANNELS 3 Zrotation Yrotation Xrotation
						JOINT LeftHandIndex1
						{
							OFFSET 0.715260 -0.000000 -0.000000 
							CHANNELS 3 Zrotation Yrotation Xrotation
							End Site
							{
								OFFSET 0.000000 0.000000 0.000000 
							}
						}
					}
				}
			}
			JOINT RightArm
			{
				OFFSET -3.136600 1.374050 -0.404650 
				CHANNELS 3 Zrotation Yrotation Xrotation
				JOINT RightForeArm
				{
					OFFSET -5.241900 -0.000000 -0.000000 
					CHANNELS 3 Zrotation Yrotation Xrotation
					JOINT RightHand
					{
						OFFSET -3.444170 -0.000000 -0.000000 
						CHANNELS 3 Zrotation Yrotation Xrotation
						JOINT RightHandIndex1
						{
							OFFSET -0.622530 -0.000000 -0.000000 
							CHANNELS 3 Zrotation Yrotation Xrotation
							End Site
							{
								OFFSET 0.000000 0.000000 0.000000 
							}
						}
					}
				}
			}
		}
	}
}
MOTION
Frames: 12
Frame Time: 0.041667
10.818248 17.747022 -28.570150 5.175238 -0.402962 3.006369 -28.505146 -0.361967 4.121466 0.080490 4.884516 17.477409 1.912486 -9.352517 1.384315 0.057900 -1.553200 -4.272400 16.623703 13.354016 -24.270871 0.243887 -3.184132 8.977924 1.049306 -7.540627 5.283737 -0.083700 1.865900 -5.135200 0.931788 -2.699162 -0.816734 5.952876 -1.234571 -0.745445 2.787793 -2.319161 14.824819 2.391100 -1.620000 9.147700 -81.073572 -9.252172 27.603667 12.566137 -22.939438 -3.192383 -1.035926 -3.101698 8.092766 -7.125000 0.000000 0.000000 81.483544 -4.615681 5.727693 -12.976078 19.926936 -2.965115 0.944381 -0.555456 9.017619 7.125000 0.000000 0.000000 
10.809912 17.734721 -28.430877 5.175514 -0.434958 3.044251 -28.537991 -0.453253 4.543529 0.079985 4.863853 17.454082 1.869809 -9.157980 1.593288 0.085800 -1.889600 -5.200600 16.640683 13.585076 -24.702479 0.151331 -3.675163 10.292813 1.060224 -7.603481 5.171303 -0.086300 1.895200 -5.216200 0.897663 -2.722254 -0.941733 5.774063 -1.214167 -1.197485 2.851144 -2.084899 14.904165 2.449100 -1.513000 9.153800 -81.007157 -8.886583 27.601657 12.636756 -23.046782 -3.245448 -1.035295 -3.035420 8.355505 -7.125000 0.000000 0.000000 81.557289 -4.942532 5.435231 -12.815576 19.678598 -2.888081 0.945388 -0.551287 9.633739 7.125000 0.000000 0.000000 
10.800661 17.726385 -28.292824 5.381522 -0.327187 2.987189 -28.800893 -0.808224 5.142376 0.083860 4.859258 17.478907 1.815148 -8.936050 1.921497 0.103100 -2.070200 -5.699800 16.719301 13.071534 -25.108386 0.052388 -4.151855 11.605935 0.949302 -7.103139 5.278443 -0.064000 1.632000 -4.489700 0.904173 -2.938516 -1.055328 5.885819 -1.293360 -1.600033 2.998388 -1.882882 14.809836 2.598800 -1.436400 8.959800 -81.147966 -8.313600 27.392990 12.726225 -23.193472 -3.298073 -1.056691 -3.006435 8.394079 -7.125000 0.000000 0.000000 81.388381 -5.439271 5.640484 -12.757643 19.611152 -2.868459 0.936003 -0.497303 10.171886 7.125000 0.000000 0.000000 
10.783176 17.725877 -28.154365 5.345663 -0.148065 3.003428 -28.710082 -1.091168 5.693951 0.095113 4.876796 17.559277 1.791593 -8.854903 2.126818 0.127800 -2.304500 -6.348100 17.008038 12.865554 -25.248154 -0.046647 -4.572262 12.782012 0.899868 -6.864719 5.251775 -0.045800 1.381700 -3.799800 0.913609 -3.014110 -1.037624 5.869695 -1.337205 -1.531887 2.879004 -1.803615 14.801143 2.520400 -1.395300 8.966200 -81.227452 -8.361161 27.344657 12.740237 -23.216325 -3.317082 -1.084952 -2.941859 8.401887 -7.125000 0.000000 0.000000 81.405384 -5.471496 5.844452 -12.726899 19.545335 -2.846397 0.966792 -0.433827 10.050935 7.125000 0.000000 0.000000 
10.763352 17.720692 -28.012652 5.263356 -0.091249 3.034407 -28.565988 -1.203474 6.217045 0.115747 4.910411 17.686345 1.765081 -8.720822 2.212112 0.202400 -2.896700 -7.991200 17.345112 12.853506 -25.255641 -0.144567 -4.947441 13.846719 0.857302 -6.690811 5.407198 -0.070200 1.709100 -4.702400 0.925998 -3.043052 -1.031079 5.858731 -1.355695 -1.495773 2.893939 -1.658835 14.849280 2.531400 -1.323600 9.019000 -81.301339 -8.365713 27.122444 12.803583 -23.334381 -3.412575 -1.130771 -2.667780 8.881038 -7.125000 0.000000 0.000000 81.445590 -5.406847 5.433520 -12.632057 19.408630 -2.810627 0.914947 -0.442847 10.798098 7.125000 0.000000 0.000000 
10.742411 17.709917 -27.867686 5.241974 -0.035061 2.943284 -28.486216 -1.256914 6.746892 0.144862 4.962166 17.873107 1.732472 -8.599172 2.474799 0.254300 -3.244500 -8.960200 17.609409 12.916630 -24.936903 -0.225662 -5.216796 14.647611 0.828004 -6.566105 5.577168 -0.062100 1.608400 -4.424500 0.952040 -3.056065 -1.050065 5.985405 -1.355804 -1.646890 2.954764 -1.664870 14.872181 2.576300 -1.331500 9.052300 -81.453597 -8.146518 27.173562 13.013969 -23.625002 -3.456680 -1.087393 -2.950573 9.263073 -7.125000 0.000000 0.000000 81.409163 -5.516056 5.055255 -12.524106 19.255457 -2.766518 0.881286 -0.488839 11.271919 7.125000 0.000000 0.000000 
10.721977 17.708392 -27.718756 5.203720 -0.045486 2.942169 -28.364898 -1.216946 7.071253 0.172043 5.015119 18.063631 1.716505 -8.632871 2.986757 0.287100 -3.445900 -9.522600 17.869915 13.087654 -24.592232 -0.284821 -5.399800 15.209306 0.780242 -6.381692 5.909738 -0.035800 1.221400 -3.358100 0.970969 -2.965736 -1.062127 6.057673 -1.307942 -1.710258 2.783758 -1.840271 15.049465 2.460600 -1.425100 9.195900 -81.607843 -8.082493 27.329399 13.082091 -23.711996 -3.475801 -1.075872 -3.016370 9.109350 -7.125000 0.000000 0.000000 81.386545 -5.598743 4.803958 -12.417387 19.087730 -2.714242 0.887408 -0.509973 11.387577 7.125000 0.000000 0.000000 
10.706118 17.722726 -27.568910 5.114464 -0.218265 3.036720 -28.289473 -1.390103 7.373669 0.195597 5.073823 18.253634 1.667043 -8.427017 3.487164 0.348900 -3.795400 -10.501700 18.119876 13.303299 -24.374128 -0.318921 -5.506118 15.537554 0.669827 -6.086727 7.067757 -0.019900 0.911800 -2.506200 1.015094 -2.870705 -1.009242 6.150935 -1.278920 -1.404406 2.651580 -1.923889 14.932135 2.397600 -1.472500 9.114200 -81.836714 -8.178354 27.115542 12.983499 -23.580009 -3.472665 -1.074821 -2.832724 9.019195 -7.125000 0.000000 0.000000 81.287536 -5.541246 4.514181 -12.243745 18.834962 -2.629218 0.928617 -0.583485 11.377336 7.125000 0.000000 0.000000 
10.692598 17.736145 -27.418557 4.973203 -0.607718 3.111583 -28.256095 -1.630364 7.666632 0.231582 5.171223 18.540851 1.569955 -7.905552 4.040631 0.355100 -3.828300 -10.594200 18.388053 13.580783 -24.123249 -0.324373 -5.515229 15.581758 0.548400 -5.932960 8.797468 -0.003000 0.355300 -0.976400 1.174895 -2.598574 -0.845693 6.646218 -1.194941 -0.699923 2.586701 -1.948042 14.662865 2.431000 -1.507500 9.007000 -82.537121 -8.601332 27.113928 12.867577 -23.413664 -3.473339 -1.150684 -2.528393 8.909434 -7.125000 0.000000 0.000000 80.800754 -5.125650 4.110124 -12.135231 18.708660 -2.582912 0.931033 -0.661665 11.347052 7.125000 0.000000 0.000000 
10.672977 17.751495 -27.266170 4.729993 -0.620243 3.073463 -28.023285 -1.955183 7.969925 0.280724 5.295977 18.932296 1.512393 -7.672709 4.867523 0.416300 -4.141700 -11.475600 18.671599 13.851433 -23.647365 -0.321231 -5.459986 15.439420 0.549300 -6.462668 10.414955 -0.004500 -0.430900 1.184100 1.058964 -2.570192 -1.083051 6.017953 -1.105814 -1.715937 2.509535 -1.975895 14.927887 2.326100 -1.509300 9.177900 -82.193208 -7.699880 27.162895 12.953547 -23.483189 -3.405223 -1.062560 -3.005172 8.822367 -7.125000 0.000000 0.000000 81.324495 -5.764130 3.634967 -12.067598 18.582869 -2.555637 0.887444 -0.692504 11.770248 7.125000 0.000000 0.000000 
10.653459 17.782298 -27.106463 4.361017 -0.324275 3.182607 -27.571529 -2.589649 8.182354 0.341348 5.476087 19.472742 1.503516 -7.755368 6.090701 0.386900 -3.994100 -11.060200 19.220038 13.643353 -23.271140 -0.309826 -5.384850 15.245507 0.521207 -6.841929 11.832334 -0.011400 -0.690500 1.897700 1.143328 -2.675162 -1.140908 6.010468 -1.146058 -1.808589 2.426315 -2.061715 14.915643 2.294700 -1.563300 9.179000 -82.499292 -7.452478 26.822857 12.935756 -23.439531 -3.396552 -1.064751 -2.983172 8.983652 -7.125000 0.000000 0.000000 81.269317 -5.818479 3.479301 -12.031236 18.513339 -2.536448 0.891881 -0.596048 12.041441 7.125000 0.000000 0.000000 
10.636482 17.815235 -26.940454 4.178251 0.020557 3.159527 -27.368202 -3.282563 8.551724 0.431276 5.716008 20.198724 1.505554 -7.902750 7.464881 0.283000 -3.421100 -9.453500 19.691433 13.049692 -22.784328 -0.297389 -5.308465 15.068743 0.438011 -6.938428 13.167025 -0.007800 -0.569700 1.565500 1.235030 -2.737267 -1.027309 6.149920 -1.207902 -1.286531 2.406585 -2.086611 14.843896 2.300300 -1.579200 9.145600 -82.902402 -7.710623 26.456940 12.848145 -23.333072 -3.438514 -1.121216 -2.601878 9.084107 -7.125000 0.000000 0.000000 81.149603 -5.536349 3.452735 -12.095585 18.599512 -2.559254 0.910657 -0.428207 11.896992 7.125000 0.000000 0.000000 
